<svg xmlns="http://www.w3.org/2000/svg" viewBox="0 0 300 250"><defs><style>.cls-1{fill:#fff;}</style></defs><title>ros-logo-white</title><g id="Layer_2" data-name="Layer 2"><g id="Layer_3" data-name="Layer 3"><path class="cls-1" d="M0,111.58a7.94,7.94,0,0,1,2.46-4.2c3.26-3.16,6.44-6.4,9.64-9.63a5.93,5.93,0,0,1,4.45-1.82c7.27,0,14.53.07,21.79,0,4.54,0,9.07-.38,13.61-.39,4.38,0,8.74.32,12.83,2.15,5.81,2.6,8.71,7.25,9.18,13.45.34,4.56-.36,9-3.38,12.6a67.23,67.23,0,0,1-5.36,5.45c-.78.75-.38,1.1.23,1.56.37.27.56.17.82-.16,3.48-4.37,7.79-7.93,11.58-12a17.6,17.6,0,0,1,8.23-4.85,27.76,27.76,0,0,1,6.12-1.08c4.45-.27,8.9-.41,13.27.84,4.64,1.33,7.83,4.11,9.19,8.82.06.2.14.4.32.89,2.24-2.29,4.35-4.47,6.48-6.64,1.55-1.57,3.12-3.12,4.68-4.69a18.16,18.16,0,0,1,8.66-4.6,4,4,0,0,0,1.94-1.12c2.72-2.74,5.57-5.37,8.16-8.23A13.32,13.32,0,0,1,154,93.48a16.25,16.25,0,0,1,10.13,2.21c6.24,3.83,7,13.85,1.88,18-1,.78-1.07,1.42-.24,2.49a13.54,13.54,0,0,1,2.77,8.31,36.16,36.16,0,0,1-.23,6.39c1.16-1.16,2.37-2.28,3.47-3.51a18.87,18.87,0,0,1,11.22-6,38.73,38.73,0,0,1,19.35,1.17c3.73,1.27,6.73,3.5,8,7.46a8.56,8.56,0,0,1-2.36,9.43c-1.69,1.59-1.64,1.61-.06,3.21,3.68,3.75,4.64,8.37,4.11,13.39-.27,2.61-.51,2.15,1.88,2.14,4.44,0,8.74-1,13.06-1.91a28.45,28.45,0,0,1,6.57-.65,5.09,5.09,0,0,1,5.13,5.09c.08,5.48-.16,10.95-.47,16.41a2.54,2.54,0,0,0,.17,1.52c1.39-1.4,2.78-2.69,4-4.09,4.35-4.82,9.86-7,16.21-7.49a32.5,32.5,0,0,1,13.79,1.54c8.38,3,10.91,10.42,10.25,17.53a11.2,11.2,0,0,1-1.57,5.06.78.78,0,0,0,.21,1.19,5.19,5.19,0,0,1,1.74,4.2c0,4.59-.54,9.06-2.91,13.13-1.37,2.36-3.51,4-5.37,5.94-2.42,2.5-4.91,4.93-7.37,7.39-3.11,3.1-7,4.39-11.23,4.87-5.7.64-11.36.55-16.82-1.55-.71-.27-1,.24-1.39.61-1.92,1.91-3.93,3.76-5.73,5.79a7.32,7.32,0,0,1-6.49,2.5c-4.92-.38-9.84-.16-14.77-.18-2.37,0-4.74,0-7.12.15-3.74.29-6.11-2.07-6.11-5.82v-1.56c-4.17,5.82-9.55,10.2-14.29,15.19-4.14,4.35-9.38,6.26-15.22,6.82-.42,0-.83.11-1.25.17h-5.35a35.79,35.79,0,0,1-7.08-1.47c-10.23-3.57-10.81-16.48-4.76-21.79,1.31-1.15,2.44-2.49,3.72-3.67a1.51,1.51,0,0,0,.21-2.35c-.33.31-.64.59-.93.88q-4.87,4.86-9.73,9.73a11.36,11.36,0,0,1-4.73,2.91,21.48,21.48,0,0,1-12.65.07,10.91,10.91,0,0,1-7.41-6.64,17.49,17.49,0,0,1-1.34-6.7v-3l-.41-.19a13.5,13.5,0,0,1-1.12,1.38c-2.13,2.06-4,4.41-6.63,5.92-5.92,3.4-12.3,3.87-18.87,2.89a28.88,28.88,0,0,1-10.6-4.18,1.43,1.43,0,0,0-2.18.28,25.14,25.14,0,0,1-2.24,2.26,5.53,5.53,0,0,1-5.8,1.22,5,5,0,0,1-3.68-4.14,22,22,0,0,1,.17-5.32c.19-3.3.55-6.59,0-9.88s-.16-6.21,2.61-8.51c1.48-1.22,1.39-1.45,0-2.92a9.94,9.94,0,0,1-1.3,1.87q-5.11,5.06-10.18,10.17a4.65,4.65,0,0,1-3.53,1.46c-4,0-8,0-12,0a4.3,4.3,0,0,1-3.78-1.69.69.69,0,0,0-1.06-.24c-4.08,2.39-8.48,2.7-13.06,2.18-6.11-.69-10.25-4.35-11.47-10.38a20.09,20.09,0,0,1-.19-5.95c.4-4,1.65-7.51,4.59-10.35,1.86-1.8,3.67-3.66,5.5-5.49,1.23-1.24,2.51-2.42,3.68-3.71,4.56-5,10.28-5.81,16.46-4.39,1.74.39,2.89.33,3.88-1.12a1.73,1.73,0,0,1,.28-.26c.55-.52.51-.79-.3-.95a12.89,12.89,0,0,1-5.78-2.51c-.68-.55-1.13-.56-1.72.07a6.72,6.72,0,0,1-5.85,2.18c-1.81-.16-3.64-.2-5.46-.21-6.75,0-13.5,0-20.25.18-4,.13-5.56-1.1-6.64-4.86v-1.53A7.49,7.49,0,0,1,2.52,157c1.16-1.05,2.22-2.21,3.34-3.32a1.94,1.94,0,0,0,.7-1.43c.05-1.73.21-3.47.22-5.2,0-5.86,0-11.72.08-17.57,0-3.27-.12-6.53-.34-9.79,0-.65.11-1.59-1-1.63-3.24-.1-4.9-1.94-5.55-4.94Zm21.2,11.83c.15,2.93-.24,5.85-.24,8.78,0,4-.15,8.06-.27,12.09a15.1,15.1,0,0,1-.35,2.77C19.92,149,19,149.56,17,149.23c-1.58-.28-2.52.33-2.68,1.72-.19,1.68.49,2.52,2.16,2.59.67,0,1.35-.09,2-.1,8-.17,16-.23,24,0a17.51,17.51,0,0,0,1.91.07,2,2,0,0,0,1.93-1.86c.25-1.72-.82-2.69-2.6-2.41-2.73.44-4-.4-4.25-2.81a69.85,69.85,0,0,1-.26-9,4.26,4.26,0,0,1,2.58-3.94,8,8,0,0,1,4.1-.73c3.28.25,4.22,1.29,4.17,4.61,0,2.75-.24,5.51-.23,8.27a7.75,7.75,0,0,0,6.06,8,23.39,23.39,0,0,0,10.72.32,8.84,8.84,0,0,0,7.64-7.49,43.68,43.68,0,0,0,.58-10.65,11.07,11.07,0,0,0-.46-2.62,2.23,2.23,0,1,0-4.29,1.22c.2.78.48,1.54.74,2.3a9.7,9.7,0,0,1,.67,3.73c-.08,1.65-.83,2.67-2.17,2.86a3,3,0,0,1-3.55-2.17,11.89,11.89,0,0,1-.31-1.88c-.55-4.74-2.84-7.32-7.26-8.11a24.45,24.45,0,0,0-4.69-.34c-1,0-2.15-.09-2.21-1.36s.93-1.43,1.93-1.61c2-.37,4.09-.73,6.1-1.28,3.5-.94,6.79-2.36,8.88-5.53,2.63-4,2.82-8.36,1.59-12.83A10.6,10.6,0,0,0,64,101.33a21.37,21.37,0,0,0-9.35-2.14c-6.24-.13-12.47.22-18.71.42-6.41.21-12.82,0-19.23-.16-1.84,0-2.62.92-2.42,2.75.16,1.38.94,1.8,2.74,1.49s2.63.22,3.14,2a7.2,7.2,0,0,1,.26,1.37C21.12,112.46,21,117.94,21.2,123.41Zm150.42,92.76c-.85,0-1.7,0-2.55,0-4.29.27-7.81,2.89-8.64,6.7-1.2,5.58,1,10.27,7,12a29.47,29.47,0,0,0,10.59.83c7.87-.62,13.75-4.15,17.38-11.27a57.79,57.79,0,0,0,5.11-16.86,145.47,145.47,0,0,1,5.12-21.91c1.45-4.27,3.36-8.34,5.17-12.46.91-2.06.22-2.95-2-3-3.26,0-6.52.5-9.79.24-2.12-.17-4.24-.19-6.36-.23-1.76,0-2.55.84-2.38,2.62a14.68,14.68,0,0,0,.36,2c2,8.19,4.28,16.33,4.6,24.84a19.32,19.32,0,0,1-.5,5.93,3.4,3.4,0,0,1-5.92,1.44,6.81,6.81,0,0,1-1.48-2.65,130.4,130.4,0,0,1-4.05-13.52c-1.06-4.37-2.12-8.75-2.12-13.29,0-2.16.34-2.54,2.46-2.92a2.26,2.26,0,0,0,1.86-2.37,1.94,1.94,0,0,0-2.1-2.06c-1.52,0-3,0-4.57.15a83.38,83.38,0,0,1-12.84.19c-2.78-.26-5.59-.28-8.39-.35-1.32,0-2,.75-2,2.09a2.84,2.84,0,0,0,1.09,2.34,11.15,11.15,0,0,1,3.2,4.53c2.54,6.1,3.77,12.58,5.38,19,.9,3.57,1.71,7.17,2.6,10.75.41,1.65,1.16,3.09,3.12,3.22a26.92,26.92,0,0,0,3.81,0c3.6-.26,7.18-.62,10.79-.63A10.47,10.47,0,0,1,189,212a3.14,3.14,0,0,1,2.25,2.68,8.21,8.21,0,0,1-.08,3.42,20.5,20.5,0,0,1-8.26,11.57,8.13,8.13,0,0,1-3.2,1.2,1.67,1.67,0,0,1-1.54-2.95c.42-.42.9-.77,1.36-1.15a4.68,4.68,0,0,0,2-3.16,5.82,5.82,0,0,0-4.17-6.72A14.05,14.05,0,0,0,171.62,216.17Zm-49.18-65.82c0,.77,0,1.54,0,2.3.28,4.51,2.74,7.41,7.12,8.2a19.06,19.06,0,0,0,5.84,0,63.16,63.16,0,0,0,10-2.57,28.14,28.14,0,0,1,10-1.64,8.36,8.36,0,0,1,4.25,1.14,1.91,1.91,0,0,1,1,2,1.86,1.86,0,0,1-1.63,1.41,7,7,0,0,1-3.6-.53,11.32,11.32,0,0,0-3.18-.84,1.56,1.56,0,0,0-1.63,1,1.65,1.65,0,0,0,.57,2,5.07,5.07,0,0,0,2.31,1,20.64,20.64,0,0,0,5.71.23,8,8,0,0,0,7.9-7,23.23,23.23,0,0,0,.33-4.56,8.42,8.42,0,0,0-7.1-8.67,23.1,23.1,0,0,0-9.72.4c-4,.88-7.92,1.87-11.9,2.75a9.76,9.76,0,0,1-4.65.25,2.47,2.47,0,0,1-1.84-3.43c.54-1.69,2-2.25,3.47-2.65,3.28-.87,6.64-.77,10-.82a38.17,38.17,0,0,0,10.2-1.25c4-1.16,7.08-3.32,8.4-7.43a17.6,17.6,0,0,0,.48-9.3,9.43,9.43,0,0,0-6.44-7.42,6,6,0,0,1-1.35-.7,1.25,1.25,0,0,1-.54-1.45,1.22,1.22,0,0,1,1.23-.92,13.06,13.06,0,0,1,1.77.14,5.31,5.31,0,0,0,5.71-2.7,8.41,8.41,0,0,0-2.27-10c-4-2.92-8.34-2.78-12.7-1a4,4,0,0,0-2.51,4.08,4.65,4.65,0,0,0,2.59,4.34,11.89,11.89,0,0,0,4,1.17c.89.14,1.85.48,1.7,1.66s-1.05,1.25-1.95,1.19c-2.32-.17-4.64-.36-7-.59a31.9,31.9,0,0,0-12.23.94c-5,1.45-8.41,4.49-9.48,9.77a17.92,17.92,0,0,0,0,7c.62,3.14,2,5.74,5,7.27a14.75,14.75,0,0,0,4.26,1.22c1,.17,1.74.69,1.69,1.73s-1,1.4-1.94,1.44c-1.1.06-2.21,0-3.31,0a8.35,8.35,0,0,0-7.66,5.22A11.55,11.55,0,0,0,122.44,150.35Zm-23,10.23a22.31,22.31,0,0,0-8,1c-5.65,1.81-9.55,5.36-10.71,11.32s-.08,11.41,4.63,15.71a24.93,24.93,0,0,0,8.83,4.94c3.12,1.1,6.31,2,9.44,3.06a17.75,17.75,0,0,1,5.43,2.76,6.23,6.23,0,0,1,2.06,7c-.75,2.15-2.79,3.4-5.57,3.42a11.29,11.29,0,0,1-6.13-1.86,29.13,29.13,0,0,1-6.23-5.6c-2.45-2.76-4.61-5.78-7.38-8.26a7.06,7.06,0,0,0-3.44-1.82,2.23,2.23,0,0,0-2.85,2.35,23.94,23.94,0,0,0,.17,2.92,32,32,0,0,1,.29,6.34c-.21,2.54-.35,5.08-.45,7.62-.06,1.55.81,2.35,2.23,2.22,1.23-.12,1.86-1.06,1.68-2.5-.3-2.4,1-3.61,3.36-3.21,2.16.37,3.92,1.59,5.75,2.66a26.25,26.25,0,0,0,19,3c4.74-1,8.68-3.19,11.06-7.6,1.61-3,1.83-6.24,1.63-9.54a14.76,14.76,0,0,0-5.25-10.91c-4.19-3.53-9.24-5.31-14.34-7-3.19-1-6.42-2-9.2-4a5.71,5.71,0,0,1-2.46-6.66c.68-2.14,2.85-3.48,5.65-3.54s5.16,1.41,7.21,3.3c3,2.78,5.21,6.27,8.08,9.16a11,11,0,0,0,4.23,3c2.73.91,4.3-.28,4-3.14-.25-2.33-.16-4.66-.21-7,0-2.55.41-5.08.24-7.63-.09-1.4-.62-1.92-1.85-1.89s-1.78.61-1.81,1.95c0,.42,0,.85,0,1.27,0,1.29-.56,1.81-1.85,1.93a6.9,6.9,0,0,1-4.08-1.22C108.58,161.88,104.26,160.24,99.49,160.58ZM217,191.78c0,7.26.18,14.52-.19,21.77-.13,2.52-.55,3-3,3.13-1.2.06-1.83.78-1.85,2.12s.5,2.06,1.78,2.1,2.55,0,3.83,0c6.75,0,13.5,0,20.25,0a2,2,0,0,0,2-3c-.4-1.06-1.25-1.24-2.26-1.23-2.08,0-2.31-.15-2.61-2.24-.52-3.67-.18-7.37-.34-11.06-.24-5.68-.17-11.38-.06-17.06.15-8,.48-16,.69-24,.08-2.8-.73-3.46-3.52-3.17l-.5.09c-6.28.94-12.44,2.66-18.85,2.67a1.64,1.64,0,0,0-1.71,1.55c-.38,1.94.47,2.89,2.44,2.69,2.56-.26,3.47.49,3.67,3.15.13,1.69.22,3.38.23,5.08C217,180.15,217,186,217,191.78Zm23.46.93a34.61,34.61,0,0,0,.29,5.62c1.14,7.2,4.78,12.39,12,14.53a31.41,31.41,0,0,0,17.59,0,11.42,11.42,0,0,0,8.16-8,31.24,31.24,0,0,0,1.1-8c.05-1-.16-2-1.42-2s-1.4,1-1.43,1.92a5.51,5.51,0,0,1-3.34,5,11.59,11.59,0,0,1-2.63.93,22.7,22.7,0,0,1-7,.44,10.33,10.33,0,0,1-6-1.92,4.32,4.32,0,0,1-1.72-4.5c.41-1.82,1.93-2.13,3.51-2.39,2-.32,4-.09,6-.23a25.63,25.63,0,0,0,8.82-1.73,7.32,7.32,0,0,0,4.63-5.8,19.75,19.75,0,0,0,.1-3.69c-.21-5.12-2.62-8.84-7.42-10.71a28.35,28.35,0,0,0-17.88-.65c-6.1,1.61-10.05,5.61-12,11.59A28.26,28.26,0,0,0,240.42,192.71Zm-51.5-26.1a38.46,38.46,0,0,0,7-.38,30.28,30.28,0,0,0,4.68-1.19c9.52-3.25,9.64-14,5.53-19.12-2.08-2.58-5-3.89-8-4.92-2.41-.82-4.87-1.48-7.28-2.31a15.35,15.35,0,0,1-5.32-2.93c-2.24-2-2.26-6.67,1.68-7.73a13.94,13.94,0,0,1,6.67-.16,1.81,1.81,0,0,1,1.6,1.44,1.63,1.63,0,0,1-.87,1.7,3.29,3.29,0,0,0-1.5,2.53c-.13,1.93.78,3.2,2.88,4a15.29,15.29,0,0,0,6,.52c2.06-.11,3.91-.83,4.8-2.82a5.88,5.88,0,0,0-.58-5.83,7.87,7.87,0,0,0-4.07-3.13,32.34,32.34,0,0,0-21.72-.38c-7.17,2.43-9.1,8.3-7.65,15,.88,4.05,4,6.26,7.6,7.83,2.76,1.21,5.69,2,8.51,3a16.19,16.19,0,0,1,4.94,2.58c2.47,2.12,2.44,6-.18,7.41a11.17,11.17,0,0,1-9,.52c-1.33-.43-1.45-1.66-.4-2.57,2.45-2.12,2.19-5.18-.69-6.62a11,11,0,0,0-9.37-.29,4.3,4.3,0,0,0-2.6,2.8,6.82,6.82,0,0,0,1.46,6.65,9.77,9.77,0,0,0,4.37,2.75A33.83,33.83,0,0,0,188.92,166.61Zm-77.09-35c0-2,0-3.53,0-5.06-.14-5.35-2.73-8.57-7.92-9.82a35.42,35.42,0,0,0-12.9-.39,20.52,20.52,0,0,0-7.52,2.24c-2.15,1.19-3.92,2.8-4.45,5.29-.78,3.64.15,6.7,3.22,7.82A11.86,11.86,0,0,0,91,131.6c2.28-.91,3.23-2.76,3-5.46-.15-1.89-1.11-2.85-3.57-3.56q-.3-.09-.6-.21a1.46,1.46,0,0,1-.93-1.63,1.33,1.33,0,0,1,1.22-1.27,10.89,10.89,0,0,1,7.06.86,4.78,4.78,0,0,1,2.41,2.85,14,14,0,0,1,.31,5.93,5.12,5.12,0,0,1-4,4.69,27.16,27.16,0,0,1-3.46.81c-3,.5-6.08.69-9,1.79s-5.08,3-5.75,6.27a16.22,16.22,0,0,0-.12,3.94,7.46,7.46,0,0,0,5.65,7.17,16.3,16.3,0,0,0,10.5-.57,7.92,7.92,0,0,0,5-5.41c.17-.61.2-1.25.35-1.87a1.21,1.21,0,0,1,2.37,0c.18.7.26,1.42.41,2.13.79,3.86,2.32,5.51,5.84,6.12a14,14,0,0,0,3.17.09c3.55-.22,5.82-1.86,6.73-5a31.58,31.58,0,0,0,.63-12.62c-.17-1.43-.91-2-2-1.77-.93.17-1.38,1-1.13,2.34.21,1.08.58,2.13.82,3.21a6.2,6.2,0,0,1-.05,3.39,2,2,0,0,1-2,1.46,2,2,0,0,1-1.92-1.42,7,7,0,0,1-.35-2.38C111.5,138,112,134.61,111.83,131.64Zm33.65,67.45c0-4.54,0-9.08,0-13.62,0-2.21.7-2.89,2.93-2.82,1.56,0,3.13.22,4.7.26a2,2,0,1,0,0-3.95,15.35,15.35,0,0,0-2.79.14,5.91,5.91,0,0,1-2.77-.12,2,2,0,0,1-1.6-2,46.14,46.14,0,0,1,.16-6.11,1.67,1.67,0,0,0-.63-1.8,1.8,1.8,0,0,0-2.15.09,5.76,5.76,0,0,0-1.09,1.06,25.15,25.15,0,0,1-14.16,8.7c-1.34.29-1.93,1-1.79,2.17.16,1.3.92,1.63,2.14,1.57,2.09-.09,2.72.51,2.86,2.62.12,1.91.23,3.82.22,5.72,0,3.53-.15,7.05-.24,10.57,0,.25-.05.5-.07.76a51.2,51.2,0,0,0,.15,10.79c.68,4.2,3.18,6.7,7.37,7.54a25.43,25.43,0,0,0,5.84.23,9,9,0,0,0,8.79-6.68,31.69,31.69,0,0,0,.94-11.1,8.18,8.18,0,0,0-.55-2.47,1.84,1.84,0,0,0-2.27-1.35,2,2,0,0,0-1.45,2.37,21.61,21.61,0,0,0,.79,3.07,8.87,8.87,0,0,1,.34,4.15,2.56,2.56,0,0,1-2.19,2.46,2.71,2.71,0,0,1-3-2,4.8,4.8,0,0,1-.3-1.11A46.51,46.51,0,0,1,145.48,199.09ZM25.8,185.84c0,.55,0,1.19,0,1.82A8.47,8.47,0,0,0,32.39,196a18.42,18.42,0,0,0,9.69,0,8.4,8.4,0,0,0,6.57-7.14,18.14,18.14,0,0,0-.43-8.19,9.68,9.68,0,0,0-7.24-7,18,18,0,0,0-5.57-.31,9.68,9.68,0,0,0-9,7.1A15.21,15.21,0,0,0,25.8,185.84Zm32,10.3h5.86c.66,0,1.07-.24,1-1s-.39-.86-1-.89c-1.48-.07-1.86-.44-2-2-.11-1-.12-1.94-.19-2.91a53.82,53.82,0,0,1,.27-8.13c.1-1.42.73-1.76,2.06-1.58a4.62,4.62,0,0,0,.63.11c.69,0,1.19-.3,1.2-1s-.48-1-1.17-1a6.72,6.72,0,0,0-1,.16,6.29,6.29,0,0,1-7.15-8.22,3,3,0,0,1,2.85-2.32c.57,0,1.15,0,1.43.6s-.15.87-.44,1.23a7.9,7.9,0,0,0-.62.81,3.16,3.16,0,0,0,1,4.45,3.5,3.5,0,0,0,4.74-1.3,5.18,5.18,0,0,0-2.42-6.73,10.05,10.05,0,0,0-9.08.25,5.27,5.27,0,0,0-2.94,5,4.47,4.47,0,0,0,2.91,4.24,4.29,4.29,0,0,1,.55.31.92.92,0,0,1,.56,1c-.11.49-.51.64-1,.67a7.44,7.44,0,0,1-1.76-.16c-.78-.14-1.41.15-1.48,1s.64.89,1.25.84a1.37,1.37,0,0,1,1.65,1.48,79.87,79.87,0,0,1-.2,12.08c-.09.71-.41,1.37-1.3,1.25-.74-.11-1.18.1-1.2.87s.62.88,1.24.88C54,196.15,55.87,196.14,57.78,196.14Z"/><path class="cls-1" d="M197.81.29c2.36.14,4.72.35,7.08.59,2.1.22,2.17.23,1.92,2.33-.71,6-1.48,12-2.22,18Q203.52,30,202.47,38.8q-.9,7.32-1.79,14.63c-.08.64-.28,1-1,.93a74,74,0,0,0-8-.35c-1,0-1.28-.38-1.32-1.35-.37-10.44-.13-20.89-.23-31.34L189.9,4.54a25.62,25.62,0,0,1,0-4.38c0-.28,2.5-.11,2.73-.1,1.36,0,2.72.1,4.08.16Z"/><path class="cls-1" d="M300,110c0,1.06,0,2.16-.15,3.2a1.71,1.71,0,0,1-1.65,1.68c-3.91.46-7.81,1-11.71,1.57q-8.88,1.22-17.75,2.45c-1.53.22-1.64.18-1.92-1.33-.44-2.46-1-4.9-1.66-7.31-.25-.86-.19-1.37.86-1.66q16.26-4.41,32.5-8.91c1.06-.3,1.38,0,1.4,1,0,3,.21,6,.09,9C300,109.83,300,109.94,300,110Z"/><path class="cls-1" d="M180.65,53.68c.18.55-.14,1-1.09,1.11a47.19,47.19,0,0,0-7.36,1.45c-1.15.34-1.64.08-2-1.11q-5.33-19.65-10.75-39.28c-.85-3.11-1.69-6.23-2.58-9.33-.22-.77-.21-1.27.69-1.55a128.6,128.6,0,0,1,14.85-3.51c.93-.18,1.08.45,1.18,1.1.44,3.15.86,6.3,1.3,9.45q1.23,9,2.47,18,1.2,8.82,2.4,17.64C180.06,49.55,180.33,51.44,180.65,53.68Z"/><path class="cls-1" d="M239.1,11.51c-.11.3-.22.62-.35.93q-9.27,22.83-18.54,45.65c-.42,1.06-.86,1.24-1.87.81a47.93,47.93,0,0,0-7-2.28c-1.09-.27-1.41-.7-1.1-1.85,3-11.48,6-23,9-34.47q1.78-6.9,3.58-13.8c.43-1.67.43-1.67,2-1.18a102.74,102.74,0,0,1,13.27,5.18C238.52,10.7,239.11,10.8,239.1,11.51Z"/><path class="cls-1" d="M141,11.68c.64.11.69.65.86,1.05q3.59,8.43,7.15,16.87,6,14.13,11.95,28.25c.77,1.81.75,1.76-1,2.57-2.11,1-4.22,2-6.25,3.13-1,.56-1.44.42-2-.53-4.91-8.43-9.87-16.84-14.81-25.25-3.2-5.45-6.39-10.92-9.64-16.34-.56-.95-.47-1.42.44-2A118.23,118.23,0,0,1,140,12.14C140.29,12,140.65,11.82,141,11.68Z"/><path class="cls-1" d="M236.67,68.89c-.22-.14-.48-.29-.72-.47a61.38,61.38,0,0,0-6.62-4.29c-.91-.51-.91-1-.44-1.79Q240,42.93,251,23.51c.6-1.07,1.24-2.13,1.81-3.22.39-.75.79-.95,1.57-.4a134.46,134.46,0,0,1,11.5,9.25c.8.72.34,1.24-.11,1.84L252.88,48Q245.35,58,237.81,67.92C237.52,68.3,237.34,68.85,236.67,68.89Z"/><path class="cls-1" d="M114,30.78c.47.06.67.47.92.79q6.7,8.59,13.4,17.18,7.63,9.81,15.29,19.59c.71.9.71,1.4-.24,2.12a44.36,44.36,0,0,0-5.62,5c-.67.7-1.13.74-1.86,0-5.05-5-10.16-10-15.24-15C115.09,55,109.55,49.44,104,44c-.82-.8-.84-1.33-.13-2.2a126.7,126.7,0,0,1,9.35-10.43A1.62,1.62,0,0,1,114,30.78Z"/><path class="cls-1" d="M286.33,55a1.58,1.58,0,0,1-.79,1.1l-22,17.15c-3.75,2.92-7.52,5.82-11.23,8.79-.92.74-1.43.67-2.14-.22A51,51,0,0,0,245,76.2c-.77-.71-.65-1.16,0-1.84,3.49-3.47,6.94-7,10.4-10.5l20.86-21.11c1.09-1.11,1.09-1.09,2.05.15a105.32,105.32,0,0,1,7.37,11C286,54.29,286.17,54.71,286.33,55Z"/><path class="cls-1" d="M130.23,83.6a8,8,0,0,1-.44.74,68.68,68.68,0,0,0-4.66,6.84c-.58,1-1.16.52-1.78.16L102.66,79.55c-4.65-2.65-9.29-5.31-14-7.92A1.23,1.23,0,0,1,88,69.81a130.43,130.43,0,0,1,5.7-12.51c.43-.83.79-1,1.62-.42q17,12.95,34.1,25.86A1.8,1.8,0,0,1,130.23,83.6Z"/><path class="cls-1" d="M297.52,84c.12.76-.49.91-1,1.12L285.29,89.9,263,99.32c-1.51.64-1.51.65-2.23-.86a64.77,64.77,0,0,0-3.53-6.63c-.51-.81-.34-1.23.46-1.7q17.21-10.08,34.37-20.2c.67-.39,1.12-.51,1.44.4a125.11,125.11,0,0,1,4,13.42C297.49,83.83,297.5,83.91,297.52,84Z"/><path class="cls-1" d="M81.56,100a106.8,106.8,0,0,1,1.66-13c.23-1.18.64-1.22,1.61-.83q17.1,7,34.21,13.89c.9.36,1.16.77.75,1.71a53,53,0,0,0-2.57,7.32c-.29,1-.75,1.22-1.72,1Q103.76,107,92,104c-3.11-.81-6.22-1.66-9.35-2.44C81.75,101.3,81.38,100.87,81.56,100Z"/><path class="cls-1" d="M273,128.83c7.63-.31,15.27-.2,22.91-.24,1.71,0,1.76,0,1.36,1.72a113.85,113.85,0,0,1-3.2,11,1.27,1.27,0,0,1-1.65,1c-7.9-1-15.81-1.95-23.71-2.89-.82-.09-1.23-.36-1.15-1.27a73.39,73.39,0,0,0,.3-8.26c0-.74.31-1.08,1.06-1.07C270.28,128.85,271.64,128.83,273,128.83Z"/><path class="cls-1" d="M266.82,149.08l6.35,1.67c4.6,1.19,9.18,2.4,13.79,3.56,1,.25,1.25.59.73,1.56-1.78,3.29-3.75,6.45-5.79,9.57a1.18,1.18,0,0,1-1.69.54q-8.23-3.39-16.5-6.7c-.79-.32-1-.71-.69-1.54a71.92,71.92,0,0,0,2.46-7.75C265.62,149.43,265.75,148.88,266.82,149.08Z"/><path class="cls-1" d="M38.94,120.52a73,73,0,0,1,.76-12.36c.56-3.31,2-4.7,4.77-4.81,4-.16,6,1.12,6.78,4.49a28,28,0,0,1,0,12.61c-1.3,5.42-5,7.45-10.07,7.52a1.87,1.87,0,0,1-2-1.68C38.73,124.26,39.07,122.22,38.94,120.52Z"/><path class="cls-1" d="M150.69,125.45a29.66,29.66,0,0,1-.49,6.45c-.45,2.44-1.72,3.77-3.68,4-2.88.28-4.66-.68-5.67-3.06a11.68,11.68,0,0,1-.84-3.58,41.24,41.24,0,0,1,.15-11.53c.67-3.46,2.44-4.75,5.94-4.39,1.89.19,2.89,1.47,3.52,3.1a24.16,24.16,0,0,1,1.06,6.76C150.74,123.92,150.69,124.69,150.69,125.45Z"/><path class="cls-1" d="M267.46,180.88c.05,2.91-.43,5.67-2.52,7.9a7.38,7.38,0,0,1-5.44,2.39c-1.87,0-2.82-.71-3.06-2.52a24.77,24.77,0,0,1,.6-10c1-3.43,3.71-5,7-4.26,2,.48,3.19,2,3.4,4.54C267.51,179.6,267.46,180.24,267.46,180.88Z"/><path class="cls-1" d="M93.58,145.06c-1.62.05-3.08-.24-3.81-1.91a4.09,4.09,0,0,1,1.14-4.75A9.69,9.69,0,0,1,98.57,136a1.55,1.55,0,0,1,1.44,1.52A6.43,6.43,0,0,1,93.58,145.06Z"/><path class="cls-1" d="M40.34,184.86a24.69,24.69,0,0,1-.49,6.7c-.43,1.61-1.19,2.34-2.44,2.36s-2-.75-2.46-2.2a11.15,11.15,0,0,1-.46-2.49,44.15,44.15,0,0,1,.37-11.54,6.07,6.07,0,0,1,.5-1.43,2.23,2.23,0,0,1,4.1.17,17.28,17.28,0,0,1,.87,5.24C40.4,182.73,40.34,183.8,40.34,184.86Z"/></g></g></svg>