<?xml version="1.0" encoding="utf-8"?>
<!-- Generator: Adobe Illustrator 24.1.3, SVG Export Plug-In . SVG Version: 6.00 Build 0)  -->
<svg version="1.1" id="Layer_1" xmlns="http://www.w3.org/2000/svg" xmlns:xlink="http://www.w3.org/1999/xlink" x="0px" y="0px"
	 viewBox="0 0 91.9 76.3" style="enable-background:new 0 0 91.9 76.3;" xml:space="preserve">
<style type="text/css">
	.st0{fill:#262422;}
	.st1{fill:#F9EEE5;}
</style>
<g id="Layer_2_1_">
	<g id="Layer_1-2">
		<path class="st0" d="M25.2,30.6c0-0.8,0.1-1.5,0.2-2.3c0.1-0.8,0.2-1.5,0.4-2.3l11.1,4.6c-0.4,0.9-0.7,1.9-1,2.9L25.2,30.6z"/>
		<path class="st0" d="M27.1,21.4c0.1-0.4,0.3-0.8,0.4-1.1s0.3-0.7,0.5-1.1c0.3-0.7,0.7-1.5,1.1-2.2L40,25.3
			c-0.6,0.8-1.2,1.6-1.7,2.5L27.1,21.4z"/>
		<path class="st0" d="M31.9,12.9c0.5-0.7,1-1.3,1.6-1.9s1.1-1.2,1.7-1.8l9.1,11.9c-0.8,0.6-1.6,1.3-2.3,2L31.9,12.9z"/>
		<path class="st0" d="M39.2,6c0.7-0.5,1.4-0.9,2.2-1.4s1.5-0.8,2.3-1.2l6.1,14.7c-0.9,0.4-1.9,0.8-2.7,1.3L39.2,6z"/>
		<path class="st0" d="M48.4,1.5c0.4-0.1,0.8-0.3,1.2-0.4s0.8-0.2,1.3-0.3c0.8-0.2,1.7-0.4,2.5-0.5l2.1,16.2c-1,0.1-2,0.3-3,0.6
			L48.4,1.5z"/>
		<path class="st0" d="M58.5,0c0.8,0,1.7,0,2.6,0.1l1.3,0.1c0.4,0,0.9,0.1,1.3,0.2l-2.1,16.2c-1-0.1-2-0.2-3-0.2L58.5,0z"/>
		<path class="st0" d="M68.7,1.6c0.8,0.3,1.6,0.5,2.4,0.8s1.6,0.7,2.3,1l-6.1,14.7c-0.9-0.4-1.9-0.7-2.9-1L68.7,1.6z"/>
		<path class="st0" d="M77.9,6.1c0.7,0.5,1.4,1,2,1.5s1.3,1.1,1.9,1.7l-9.1,11.9c-0.8-0.6-1.7-1.2-2.5-1.7L77.9,6.1z"/>
		<path class="st0" d="M85.2,12.9c0.5,0.7,1,1.3,1.4,2s0.9,1.4,1.3,2.1L77,25.3c-0.6-0.8-1.3-1.6-2-2.3L85.2,12.9z"/>
		<path class="st0" d="M89.9,21.4c0.5,1.5,1,3,1.3,4.6l-11,4.6c-0.4-0.9-0.9-1.8-1.4-2.7L89.9,21.4z"/>
		<path class="st0" d="M91.8,30.6c0.1,1.5,0.1,3,0,4.6l-9.9,1.3c-0.2-1-0.4-2-0.7-3L91.8,30.6z"/>
		<path class="st0" d="M91.1,39.5c-0.3,1.4-0.7,2.8-1.2,4.1l-7.9-1c0.1-1,0.2-2.1,0.2-3.1L91.1,39.5z"/>
		<path class="st0" d="M88.2,47.5c-0.3,0.6-0.7,1.2-1,1.8l-0.6,0.8c-0.2,0.3-0.4,0.6-0.6,0.8l-5.6-2.3c0.4-1,0.7-1.9,1-3L88.2,47.5z
			"/>
		<path class="st0" d="M85.7,58.6c0.5-0.7,0.7-1.6,0.7-2.4c0-1.9-0.8-5.2-6.4-5.2c-2.1-0.1-4.2,0.6-5.7,2.2l-0.3,0.3
			c-0.1,0.1-0.2,0.2-0.3,0.3c-0.1,0.1-0.2,0.2-0.3,0.3c-0.1,0.1-0.2,0.2-0.3,0.3l-0.2,0.2c0-1.4,0.1-2.5,0.1-3.5s0.1-1.5,0.1-1.9
			c0.1-0.9-0.5-1.7-1.4-1.8c-0.1,0-0.2,0-0.3,0c-0.8,0-1.6,0.1-2.4,0.3c-1.3,0.3-2.6,0.5-3.8,0.5h-0.3c0.1-0.4,0.2-0.9,0.2-1.4
			c0.1-1.5-0.6-3-1.8-3.9l0.2-0.2c0.1-0.1,0.2-0.2,0.3-0.3c0.6-0.5,0.9-1.2,0.9-2c0-1.1-0.6-3.7-6.3-3.7c-2.8,0-4.4,0.8-5.3,1.8
			c-0.1,0.1-0.2,0.2-0.3,0.3c-0.1,0.1-0.2,0.2-0.3,0.3c-0.1,0.1-0.2,0.2-0.3,0.3c-0.1,0.1-0.2,0.2-0.3,0.3l-0.2,0.2
			c0.2-0.6,0.2-1.2,0.2-1.8c0.1-1.2-0.4-2.4-1.2-3.3c0,0,0.1-0.1,0.1-0.1c0.1-0.1,0.2-0.2,0.3-0.3c0.7-0.6,1-1.5,1-2.3
			c0-2.1-1.7-3.7-3.7-3.7c-0.1,0-0.2,0-0.3,0c-1.1-0.1-2.3,0.3-3.1,1.1c-0.1,0.1-0.2,0.2-0.3,0.3c-0.1,0.1-0.2,0.2-0.3,0.3
			c-0.1,0.1-0.2,0.2-0.3,0.3c-0.1,0.1-0.2,0.2-0.3,0.3c-0.1,0.1-0.2,0.2-0.3,0.3c-0.1,0.1-0.2,0.2-0.3,0.3c-0.1,0.1-0.2,0.2-0.3,0.3
			c-0.1,0.1-0.2,0.2-0.3,0.3c-0.1,0.1-0.2,0.2-0.3,0.3l-0.1,0.1c-1.2,0.2-2.3,0.8-3.1,1.6c-0.1,0.1-0.2,0.2-0.3,0.3L37.7,35
			c-0.1,0.1-0.2,0.2-0.3,0.3c-0.1,0.1-0.2,0.2-0.3,0.3c-0.1,0.1-0.2,0.2-0.3,0.3l-0.3,0.3c-0.1,0.1-0.2,0.2-0.3,0.3l-0.3,0.3
			c-0.1,0.1-0.2,0.2-0.3,0.3c-0.2,0.1-0.3,0.3-0.4,0.4c-0.5-2.3-2.2-3.3-5.5-3.3s-4.8,0.9-5.7,1.8c-0.1,0.1-0.2,0.2-0.3,0.3
			c-0.1,0.1-0.2,0.2-0.3,0.3c-0.1,0.1-0.2,0.2-0.3,0.3c-0.1,0.1-0.2,0.2-0.3,0.3l-0.3,0.3c-0.1,0.1-0.2,0.2-0.3,0.3l-0.3,0.3
			c-0.1,0.1-0.2,0.2-0.3,0.3l-0.3,0.3c-0.3,0.3-0.6,0.7-0.8,1.1c-0.2-0.2-0.3-0.3-0.5-0.5l0.1-0.1l0.3-0.3l0.3-0.3l0.3-0.3
			c0.1-0.1,0.2-0.2,0.3-0.3c1.1-1,1.6-2.4,1.5-3.9c0-1.9-0.8-5.2-6.4-5.2c-0.8,0-2,0-3.4,0.1s-2.7,0.1-3.6,0.1s-1.5,0-2.2,0
			s-1.4,0-2,0c-0.5,0-1,0.2-1.3,0.6c-0.1,0.1-0.2,0.2-0.3,0.3c-0.1,0.1-0.2,0.2-0.3,0.3c-0.1,0.1-0.2,0.2-0.3,0.3
			c-0.1,0.1-0.2,0.2-0.3,0.3c-0.1,0.1-0.2,0.2-0.3,0.3c-0.1,0.1-0.2,0.2-0.3,0.3c-0.1,0.1-0.2,0.2-0.3,0.3c-0.1,0.1-0.2,0.2-0.3,0.3
			c-0.1,0.1-0.2,0.2-0.3,0.3C0.3,33.2,0,33.7,0,34.3c-0.1,0.9,0.6,1.7,1.4,1.7c0.1,0,0.1,0,0.2,0c0.1,0,0.2,0,0.3,0
			c0,0.2,0,0.5,0.1,0.7c0.1,1.1,0.1,2.4,0.1,4.2c0,2-0.1,4.2-0.1,5.8c-0.1,0.1-0.2,0.2-0.3,0.3c-0.1,0.1-0.2,0.2-0.3,0.3
			c-0.1,0.1-0.2,0.2-0.3,0.3c-0.1,0.1-0.2,0.2-0.3,0.3C0.2,48.3,0,48.9,0,49.5c-0.1,0.9,0.6,1.6,1.5,1.7c0.1,0,0.1,0,0.2,0h1.5h2.9
			h2.8h1.5c0.5,0,0.9-0.2,1.2-0.6c0.1-0.1,0.2-0.2,0.3-0.3c0.7,0.6,1.6,1,2.5,1.1c-0.1,0.1-0.2,0.2-0.3,0.3l-0.3,0.3
			c-0.1,0.1-0.2,0.2-0.3,0.3l0,0c-0.7-0.3-1.4-0.4-2.1-0.4c-1.3-0.1-2.6,0.4-3.5,1.4l-0.3,0.3l-0.3,0.3l-0.3,0.3
			c-0.1,0.1-0.2,0.2-0.3,0.3l-0.3,0.3c-0.1,0.1-0.2,0.2-0.3,0.3l-0.3,0.3c-0.1,0.1-0.2,0.2-0.3,0.3c-0.1,0.1-0.2,0.2-0.3,0.3
			c-1,1-1.6,2.5-1.5,3.9c0,2.7,1.6,4.2,4.6,4.2c1.1,0.1,2.2-0.3,3.2-0.9c0.2,0.5,0.7,0.8,1.2,0.8l0,0c0.6,0,1.3,0,1.9,0
			c0.6,0,1.2,0,1.8,0l0,0c0.4,0,0.8-0.2,1.1-0.5c0.1-0.1,0.2-0.2,0.3-0.3c0.1-0.1,0.2-0.2,0.3-0.3c0.1-0.1,0.2-0.2,0.3-0.3
			c0.1-0.1,0.2-0.2,0.3-0.3c0.1-0.1,0.2-0.2,0.3-0.3c0.1-0.1,0.2-0.2,0.3-0.3c0.1-0.1,0.2-0.2,0.3-0.3c0.1-0.1,0.2-0.2,0.3-0.3
			c0.1-0.1,0.2-0.2,0.3-0.3c0.3-0.2,0.5-0.5,0.5-0.9c0.1,0.3,0.3,0.6,0.5,0.8C21.1,60.8,21,60.9,21,61c-0.1,0.1-0.2,0.2-0.3,0.3
			c-0.4,0.3-0.7,0.9-0.7,1.4c0,0.3,0,0.6,0.1,0.8c0.1,0.4,0.1,0.9,0.1,1.3c0,0.5-0.1,1.3-0.1,1.9S20,67.7,20,68
			c0.1,0.9,0.9,1.6,1.8,1.6c0.5,0,0.9-0.3,1.2-0.6c0.1-0.1,0.2-0.2,0.3-0.3c0.1-0.1,0.2-0.2,0.3-0.3c0.1,0,0.1-0.1,0.2-0.2l0.3,0.2
			c1.4,0.9,3.1,1.4,4.8,1.4c2,0.1,4-0.6,5.4-2c0.1-0.1,0.2-0.2,0.3-0.3l0.3-0.3c0.1-0.1,0.2-0.2,0.3-0.3l0.3-0.3l0,0
			c0,0.2,0,0.4,0,0.6c0,3.3,1.5,4.8,4.6,4.8c1.3,0.1,2.6-0.4,3.5-1.3c0.1-0.1,0.2-0.2,0.3-0.3c0.1-0.1,0.2-0.2,0.3-0.3
			c0.1-0.1,0.2-0.2,0.3-0.3c0.1-0.1,0.2-0.2,0.3-0.3c0.1-0.1,0.2-0.2,0.3-0.3c0.1-0.1,0.2-0.2,0.3-0.3c0.1-0.1,0.2-0.2,0.3-0.3
			c0.1-0.1,0.2-0.2,0.3-0.3c0.1-0.1,0.2-0.2,0.3-0.3c0.1-0.1,0.2-0.2,0.3-0.3c0.1,0.2,0.1,0.4,0.2,0.6L47.1,68
			c-0.1,0.1-0.2,0.2-0.3,0.3c-0.1,0.1-0.2,0.2-0.3,0.3c-0.1,0.1-0.2,0.2-0.3,0.3c-0.1,0.1-0.2,0.2-0.3,0.3c-0.8,0.7-1.2,1.7-1.2,2.8
			c0,1.6,0.7,4.2,5.5,4.2c2.2,0.2,4.4-0.6,5.9-2.2l0.3-0.3c0.1-0.1,0.2-0.2,0.3-0.3l0.3-0.3c0.1-0.1,0.2-0.2,0.3-0.3l0.3-0.3
			c0.1-0.1,0.2-0.2,0.3-0.3l0.3-0.3c0.1-0.1,0.2-0.2,0.3-0.3l0.3-0.3c0.5-0.5,1-1,1.5-1.6c0,0.2-0.1,0.3-0.1,0.5
			c0,0.9,0.7,1.6,1.5,1.6c0,0,0.1,0,0.1,0h0.8c0.6,0,1.6,0,2.6,0c0.8,0,1.9,0,2.8,0h1.4c0.5,0,1-0.2,1.3-0.6
			c0.1-0.1,0.2-0.2,0.3-0.3c0.1-0.1,0.2-0.2,0.3-0.3c0.1-0.1,0.2-0.2,0.3-0.3c0.1-0.1,0.2-0.2,0.3-0.3c0.1-0.1,0.2-0.2,0.3-0.3
			c0.1-0.1,0.2-0.2,0.3-0.3c0.1-0.1,0.2-0.1,0.2-0.2c1.2,0.5,2.4,0.7,3.6,0.7c2.5,0,4.2-0.6,5.2-1.7c0.1-0.1,0.2-0.2,0.3-0.3
			s0.2-0.2,0.3-0.3s0.2-0.2,0.3-0.3c0.1-0.1,0.2-0.2,0.3-0.3c0.1-0.1,0.2-0.2,0.3-0.3c0.1-0.1,0.2-0.2,0.3-0.3l0.3-0.3
			c0.1-0.1,0.2-0.2,0.3-0.3c0.1-0.1,0.2-0.2,0.3-0.3c1.2-1,1.7-2.7,1.7-5C86.5,59.4,86.2,58.9,85.7,58.6z"/>
		<path class="st1" d="M22,40.1c-0.4,0-0.7,0.3-0.7,0.6c0,0,0,0.1,0,0.1c0,0.5,0.5,1.2,0.5,1.9c0,0.6-0.2,1-0.8,1s-0.9-0.3-0.9-1
			c-0.3-2.4-1.5-2.9-3.9-2.9c-0.3,0-0.5-0.2-0.5-0.3s0.1-0.4,0.4-0.4c2.8-0.4,5.5-1.1,5.5-4.7c0-2.9-2-4.2-5.4-4.2
			c-1.6,0-5.2,0.2-7,0.2c-1.5,0-2.9,0-4.3,0c-0.4,0-0.6,0.3-0.6,0.7c0,0.4,0.2,0.7,0.6,0.7c0.2,0,0.4-0.1,0.6-0.1
			c0.7,0,0.7,0.8,0.8,1.7c0.1,1.3,0.1,2.8,0.1,4.3c0,2.3-0.1,4.6-0.1,6.2c0,1.2-0.2,1.7-0.8,1.7c-0.1,0-0.3-0.1-0.5-0.1
			c-0.4,0-0.7,0.4-0.6,0.7c0,0.4,0.2,0.7,0.6,0.7c0.7,0,3,0,4.5,0s3.5,0,4.3,0c0.4,0,0.6-0.4,0.6-0.7c0-0.4-0.2-0.7-0.6-0.7
			c0,0,0,0,0,0c-0.2,0-0.6,0-0.7,0c-0.7,0-0.8-0.4-0.9-1.4c0-0.5-0.1-1.4-0.1-2c0-1,0.7-1.5,1.9-1.5c1,0,1.4,0.4,1.4,1.1
			c0,0.9-0.1,1.7-0.1,2.5c0,2.2,1.3,3,3.8,3c3.6,0,4-1.8,4-4.9C22.9,40.5,22.7,40.1,22,40.1z M12.5,39c-0.4,0-0.6-0.2-0.6-1.2
			c0-5.5,0.2-6.2,1.9-6.2s2,1,2,3.5S14.7,39,12.5,39z M35.5,41.1c-0.3,0-0.5,0.2-0.5,0.5c0,0,0,0,0,0.1c0,0.4,0.3,1.2,0.3,1.7
			s-0.2,0.9-0.6,0.9s-0.6-0.3-0.6-1s0.1-2.4,0.1-4.1c0-2.3-0.7-3.8-4.7-3.8s-5.5,1.4-5.5,3c0,1.5,0.8,2.1,2.4,2.1s2.4-0.6,2.4-1.8
			c0.1-0.7-0.4-1.3-1.1-1.4c-0.4-0.1-0.5-0.2-0.5-0.4s0.1-0.5,0.9-0.5c1.6,0,2.5,0.5,2.5,2.1c0,1.8-0.3,2.3-3.1,2.6
			c-2.1,0.2-3.8,0.8-3.8,3.1c0,1.7,0.8,2.9,3.1,2.9s3.5-1.2,3.6-2.4c0-0.3,0.1-0.4,0.4-0.4s0.3,0.1,0.3,0.4c0.2,1.3,0.6,2.4,2.5,2.4
			c2.1,0,2.8-1,2.8-4.1C36.2,41.5,36.1,41.1,35.5,41.1L35.5,41.1z M28.5,44.2c-0.6,0-1.2-0.2-1.2-1c0-1,1.2-1.7,2.6-1.7
			c0.4,0,0.5,0.3,0.5,0.7c0.1,1.1-0.8,2-1.8,2C28.6,44.2,28.6,44.2,28.5,44.2L28.5,44.2z M47.9,43.7c-2.1,0-5.1,1.2-6.6,1.2
			c-0.7,0-0.9-0.3-0.9-0.7c0-0.8,0.8-1.3,4-1.3c4.5,0,6.1-1.4,6.1-4.5c0.2-1.5-0.7-2.9-2.2-3.4c-0.4-0.1-0.5-0.3-0.5-0.5
			s0.1-0.3,0.4-0.3c0.1,0,0.5,0,0.8,0c1.1,0,1.7-0.8,1.7-2c0-1.5-1.3-2.8-2.8-2.7c-0.1,0-0.2,0-0.3,0c-1.8,0-2.6,0.7-2.6,1.6
			s0.8,1.6,2,1.8c0.4,0,0.6,0.2,0.6,0.4s-0.1,0.4-0.5,0.4c-0.7,0-1.9-0.2-3.2-0.2c-3.6,0-5.7,1.4-5.7,4.5c0,2.3,1.1,3.5,3,3.7
			c0.3,0,0.5,0.2,0.5,0.5c0,0.2-0.2,0.4-0.4,0.4c0,0,0,0,0,0h-0.8c-1.8,0-3,1.2-3,3.4s0.9,3.4,3.1,3.4c2.4,0,4.6-1.4,6.7-1.4
			c1.2,0,1.9,0.3,1.9,0.8c0,0.2-0.2,0.5-0.7,0.5c-0.7,0-1.3-0.4-1.9-0.4c-0.3,0-0.5,0.2-0.6,0.5c0,0,0,0,0,0.1
			c0,0.5,0.6,0.9,2.2,0.9c2.3,0,3.2-1.1,3.2-3.5C51.2,44.8,50.1,43.7,47.9,43.7L47.9,43.7z M44.3,34.6c1.1,0,1.6,0.8,1.6,3.7
			c0,2.6-0.4,3.2-1.5,3.2c-1.6,0-1.7-1.8-1.7-4C42.7,35,43.3,34.6,44.3,34.6z M59.7,48.3c0-1.2-1-1.6-3.4-2.4
			c-2.2-0.7-3.7-1.6-3.7-4c0-2.2,1.5-4,5.5-4c3.5,0,5.3,1,5.3,2.7c0,1-0.7,1.7-2.1,1.7s-2.4-0.4-2.4-1.3c0-0.4,0.2-0.7,0.5-0.9
			c0.2-0.1,0.3-0.2,0.3-0.4c0-0.3-0.3-0.6-1.4-0.6c-1.5,0-2,0.5-2,1.4s0.5,1.6,3.6,2.4s4,2.3,4,4.2c0,2.6-2,4-5.8,4
			c-4.5,0-5.7-1.3-5.7-2.9c0-1.1,0.8-1.7,2.3-1.7s2.3,0.6,2.3,1.4c0.1,0.4-0.1,0.8-0.4,1c-0.2,0.2-0.3,0.2-0.3,0.4
			c0,0.3,0.4,0.5,1.5,0.5C58.9,49.7,59.7,49.2,59.7,48.3z M11.3,60.1c-2.6,0-3.6-1.3-3.6-3.3c0-2.9,1.5-4,3.6-4s3.7,1.2,3.7,4
			C15,58.8,14,60.1,11.3,60.1z M11.3,53.5c-0.6,0-0.9,0.5-0.9,3.1c0,2,0.3,2.6,0.9,2.6s0.9-0.5,0.9-2.6
			C12.2,53.9,11.9,53.5,11.3,53.5L11.3,53.5z M15.3,54.6c0-0.2,0.2-0.4,0.3-0.4c0,0,0,0,0,0c0.2,0,0.5,0,0.7,0s0.3-0.1,0.3-0.2
			s-0.1-0.2-0.2-0.2c-0.6-0.2-1-0.8-1-1.5c0-1.1,0.9-1.9,2.4-1.9c1.7,0,2.3,0.8,2.3,1.8s-0.5,1.2-1,1.2c-0.7,0-1.1-0.4-1.1-1
			c0-0.3,0.1-0.6,0.3-0.9c0.1-0.1,0.2-0.2,0.2-0.3s-0.1-0.2-0.3-0.2c-0.7,0-1,0.5-1,1.2c-0.1,1,0.6,1.8,1.6,1.9c0.1,0,0.2,0,0.3,0
			c0.3,0,0.6-0.1,0.7-0.1s0.4,0.2,0.4,0.4S20,55,19.7,55s-0.3,0-0.5,0s-0.4,0.1-0.4,1c0,0.4,0,1,0,1.5s0,0.9,0.1,1.2
			s0.1,0.7,0.4,0.7c0,0,0.1,0,0.2,0c0.2,0,0.3,0.2,0.3,0.3c0,0,0,0,0,0c0,0.2-0.1,0.3-0.3,0.3h-1.8h-2c-0.2,0-0.3-0.1-0.3-0.3
			s0.1-0.3,0.3-0.3H16c0.2,0,0.2-0.1,0.3-0.8c0-0.4,0-0.9,0-1.5s0-1.4,0-1.9c0-0.2-0.1-0.3-0.3-0.3h-0.3c-0.2,0-0.3-0.1-0.4-0.2
			C15.3,54.7,15.3,54.6,15.3,54.6L15.3,54.6z M24.9,65.3c-0.4,0-0.7-0.2-0.7-0.6c0-0.6,0.2-2.1,0.2-3.1s-0.2-1.7-0.2-2.2
			c-0.1-0.4,0.2-0.8,0.6-0.8c0.1,0,0.1,0,0.2,0c2,0,3.9,5.4,7.2,5.4c0.9,0.1,1.7-0.5,1.8-1.3c0-0.1,0-0.2,0-0.3
			c0-1.2-0.7-1.9-3.8-2.8c-4.1-1.1-5.7-2.8-5.7-5.7c0-2.6,1.8-5,6-5c2.9,0,4.1,1.6,5.1,1.6c0.4,0,0.7-0.2,0.7-0.5s0-0.3,0-0.5
			c0-0.3,0.2-0.6,0.5-0.6c0,0,0.1,0,0.1,0c0.5,0,0.6,0.2,0.6,0.8c0,0.8-0.1,1.6-0.1,2.6c0,0.6,0,1.6,0,2s-0.2,0.9-0.7,0.9
			c-2.3,0-3.7-4.8-6.4-4.8c-1.1,0-1.8,0.6-1.8,1.5s0.6,1.7,3.5,2.6c4.3,1.3,6.2,2.9,6.2,6.1s-2.5,4.9-5.8,4.9s-4.7-1.9-6-1.9
			c-0.6,0-0.8,0.2-0.8,0.7c0,0.2,0,0.3,0,0.5c0,0.3-0.2,0.6-0.5,0.6C25,65.3,25,65.3,24.9,65.3z M43.5,67.6c-2.7,0-3.6-1.2-3.6-3.8
			c0-1.1,0.1-2.9,0.1-4.5c0-0.8,0-1.6,0-2.5c0-0.6-0.2-0.8-0.5-0.8s-0.5,0-0.5,0c-0.4,0-0.5-0.3-0.5-0.6c0-0.3,0.2-0.6,0.5-0.6
			c0,0,0,0,0,0c1.8-0.4,3.3-1.3,4.5-2.7c0.2-0.2,0.4-0.4,0.7-0.4c0.3,0,0.5,0.2,0.5,0.4c0,0,0,0,0,0c0,0.3-0.1,1-0.1,2
			c0,0.6,0.3,0.7,0.9,0.7c0.2,0,0.9-0.1,1.3-0.1c0.3,0,0.6,0.3,0.6,0.6c0,0,0,0,0,0.1c0,0.3-0.2,0.7-0.5,0.7c0,0-0.1,0-0.1,0
			c-0.5,0-1.2-0.1-1.7-0.1s-0.7,0.2-0.7,0.7c0,2.3-0.1,4.7,0,6.2c0.1,1.5,0.5,1.8,1,1.8s0.7-0.6,0.7-1.2s-0.4-1.2-0.4-1.8
			c0-0.3,0.2-0.7,0.5-0.7c0,0,0.1,0,0.1,0c0.6,0,0.8,0.4,0.8,2.1C47.2,66.1,46.3,67.6,43.5,67.6z M47.4,52.6c0-0.4,0.2-0.7,0.6-0.7
			c0,0,0,0,0,0c0.8,0,2.4,0.2,4.2,0.2c1.3,0,2.5-0.2,3.8-0.2c0.4,0,0.7,0.3,0.7,0.7c0,0,0,0.1,0,0.1c0,0.4-0.3,0.7-0.7,0.7
			c0,0,0,0,0,0c-0.5,0-0.7,0.2-0.7,0.9c0.3,2.7,0.9,5.4,1.8,8c0.3,0.9,0.6,1.3,1.3,1.3s1-0.3,1-2c0-4-1.5-7.7-1.5-8.9
			c0-0.4,0.1-0.8,0.6-0.8s1.8,0.1,2.7,0.1s2-0.1,2.5-0.1c0.4,0,0.6,0.2,0.6,0.6s-2.1,3.5-3.1,10.6c-1.1,5.8-2.7,9-8,9
			c-3.3,0-4.6-1.4-4.6-3.3c0-1.7,1.2-2.9,3.5-2.9s3.2,0.7,3.2,2.1c0,0.5-0.3,1-0.7,1.3c-0.3,0.2-0.5,0.4-0.5,0.7s0.2,0.4,0.5,0.4
			c1.8,0,3.7-3,3.7-4.4c0-1.1-0.5-1.4-1.9-1.4s-2.7,0.2-4,0.2c-0.8,0-1.1-0.2-1.3-1.4c-1.7-7-2.1-8.8-3.2-9.9
			C47.6,53.3,47.4,53,47.4,52.6L47.4,52.6z M64.6,66.8c0-0.3,0.2-0.7,0.6-0.7c0,0,0.2,0,0.4,0c0.4,0,0.5-0.4,0.6-1.3
			c0-2.2,0.1-4.3,0.1-6.5c0-2,0-4-0.1-6c0-1.1-0.1-1.6-0.7-1.6c-0.1,0-0.5,0.1-0.7,0.1c-0.3,0-0.6-0.3-0.6-0.7
			c0-0.6,0.3-0.8,0.7-0.8c2.8,0,4.7-0.8,6.3-0.8c0.6,0,0.7,0.3,0.7,0.8c0,1.2-0.2,4.4-0.2,9c0,2.3,0,5.2,0.1,6.8
			c0,0.8,0.1,1.1,0.5,1.1h0.4c0.4,0,0.6,0.3,0.7,0.6c0,0,0,0.1,0,0.1c0,0.4-0.2,0.7-0.7,0.7c-0.6,0-2.8,0-4.1,0s-2.9,0-3.4,0
			S64.6,67.2,64.6,66.8L64.6,66.8z M79.8,65.4c-3.4,0-6.5-1.4-6.5-6.4c0-5.2,2.8-7,6.6-7c4.2,0,5.4,2,5.4,4.2c0,1.9-0.9,3.2-5.3,3.2
			c-1.1,0-1.8,0.2-1.8,0.9c0,1,0.9,1.7,2.9,1.7s3.3-0.5,3.3-2c0-0.3,0.2-0.5,0.4-0.6c0,0,0,0,0.1,0c0.3,0,0.5,0.2,0.5,0.6
			C85.4,63.9,84,65.4,79.8,65.4L79.8,65.4z M78.3,56.7c0,0.3,0,0.7,0.1,1c0.1,0.4,0.4,0.6,0.8,0.6c0.7,0,2.4-0.4,2.4-3.1
			c0-1.2-0.3-1.9-1.4-1.9C78.8,53.3,78.3,54.3,78.3,56.7L78.3,56.7z"/>
	</g>
</g>
</svg>
